<svg width="20" height="22" viewBox="0 0 20 22" fill="none" xmlns="http://www.w3.org/2000/svg">
<path fill-rule="evenodd" clip-rule="evenodd" d="M19.9403 3.19923C20.1747 2.73628 19.6433 2.87669 19.6433 2.87669C19.6433 2.87669 16.1009 6.48444 15.6086 6.04235C15.1162 5.60027 19.077 2.14248 18.6083 1.49633C18.1746 0.894037 14.6949 5.19391 14.2769 4.66872C13.8629 4.14458 17.2566 0.381221 17.2566 0.381221C17.2566 0.381221 17.3856 -0.185352 16.9526 0.0629212C11.6168 3.10728 10.9371 5.94545 10.9371 5.94545C10.9371 5.94545 10.7535 6.49823 11.1521 6.92546C11.1911 6.96259 1.41725 17.2737 0.108891 18.6658C-0.527789 19.3406 1.80826 21.7784 2.44094 21.1036C3.74964 19.7115 13.4492 9.32544 13.4842 9.36399C13.8865 9.79015 14.4062 9.59458 14.4062 9.59458C14.4062 9.59458 17.0769 8.87133 19.9403 3.19923Z" fill="#FF9F68"/>
<path fill-rule="evenodd" clip-rule="evenodd" d="M10.0092 13.6189C12.6102 16.3846 16.9953 21.0456 16.9953 21.0456C16.9953 21.0456 18.9093 20.381 19.179 18.6657L12.2205 11.2685C11.5719 11.9567 10.8188 12.7567 10.0092 13.6189Z" fill="#FF9F68"/>
<path fill-rule="evenodd" clip-rule="evenodd" d="M6.58642 11.2218C7.61944 10.1265 8.58313 9.10223 9.38214 8.25096L1.81931 0.211774C1.81931 0.211774 1.68264 0.0596978 1.38164 0.380473C0.783958 1.01247 -0.372401 5.03932 4.53004 10.2485C5.30706 11.0746 5.98307 11.1892 6.58642 11.2218Z" fill="#FF9F68"/>
</svg>
