<svg width="33" height="33" viewBox="0 0 33 33" fill="none" xmlns="http://www.w3.org/2000/svg">
<g clip-path="url(#clip0_26_386)">
<path fill-rule="evenodd" clip-rule="evenodd" d="M29.7 26.4H3.3C1.4784 26.4 0 27.8784 0 29.7C0 31.5216 1.4784 33 3.3 33H29.7C31.5216 33 33 31.5216 33 29.7C33 27.8784 31.5216 26.4 29.7 26.4ZM29.7 13.2H3.3C1.4784 13.2 0 14.6784 0 16.5C0 18.3216 1.4784 19.8 3.3 19.8H29.7C31.5216 19.8 33 18.3216 33 16.5C33 14.6784 31.5216 13.2 29.7 13.2ZM3.3 6.6H29.7C31.5216 6.6 33 5.1216 33 3.3C33 1.4784 31.5216 0 29.7 0H3.3C1.4784 0 0 1.4784 0 3.3C0 5.1216 1.4784 6.6 3.3 6.6Z" fill="white"/>
</g>
<defs>
<clipPath id="clip0_26_386">
<rect width="33" height="33" fill="white"/>
</clipPath>
</defs>
</svg>
