<svg width="37" height="34" viewBox="0 0 37 34" fill="none" xmlns="http://www.w3.org/2000/svg">
<ellipse cx="18.0149" cy="17" rx="18.0149" ry="17" fill="black" fill-opacity="0.6"/>
<g clip-path="url(#clip0_88_1028)">
<path d="M20.3727 24.7313C20.6054 24.7313 20.839 24.6427 21.0172 24.4641C21.3732 24.1081 21.3732 23.532 21.0172 23.1761L14.7064 16.8657L21.0172 10.5549C21.3732 10.199 21.3732 9.6224 21.0172 9.26693C20.6612 8.91096 20.0847 8.91096 19.7288 9.26693L12.7745 16.2212C12.4185 16.5772 12.4185 17.1538 12.7745 17.5092L19.7288 24.464C19.9064 24.6422 20.1396 24.7313 20.3727 24.7313Z" fill="white"/>
</g>
<defs>
<clipPath id="clip0_88_1028">
<rect width="15.7313" height="15.7313" fill="white" transform="matrix(-1 0 0 1 24.7617 9)"/>
</clipPath>
</defs>
</svg>
