<svg width="18" height="18" viewBox="0 0 18 18" fill="none" xmlns="http://www.w3.org/2000/svg">
<path d="M15.965 2.03469C13.2518 -0.678229 8.8526 -0.678229 6.13939 2.03469C3.61937 4.5553 3.44387 8.52823 5.60568 11.2552L5.03778 11.8232L4.56618 11.3515L0.712652 15.2048C0.48645 15.0611 0.312149 14.9996 0.241048 15.0713L0.0301472 15.2816C-0.312755 15.6245 2.37556 18.3134 2.71846 17.9702L2.92937 17.7596C3.00077 17.6885 2.93867 17.5139 2.79556 17.2871L6.64879 13.4342L6.17689 12.9626L6.74509 12.395C9.47241 14.5571 13.4444 14.3813 15.9653 11.861C18.678 9.14743 18.6786 4.74851 15.965 2.03469ZM15.1463 11.0419C12.8849 13.3028 9.21921 13.3034 6.95839 11.0419C4.69728 8.78143 4.69728 5.11451 6.95839 2.85399C9.21861 0.592879 12.8855 0.592879 15.1463 2.85399C17.4072 5.11511 17.4066 8.78083 15.1463 11.0419Z" fill="#FF9F68"/>
<path d="M15.9951 6.57073C15.7515 7.21333 15.3762 7.81694 14.8584 8.33444C12.9045 10.2887 9.73556 10.2887 7.78075 8.33354C6.92214 7.47553 6.44124 6.38203 6.33684 5.26062C5.66003 7.04533 6.03683 9.13844 7.47384 10.5755C9.42836 12.53 12.5973 12.53 14.5518 10.5755C15.648 9.48015 16.1283 8.00234 15.9951 6.57073Z" fill="#FF9F68"/>
</svg>
