<svg width="323" height="323" viewBox="0 0 323 323" fill="none" xmlns="http://www.w3.org/2000/svg">
<path d="M161.5 0C72.3153 0 0 72.3012 0 161.493C0 250.685 72.3083 322.986 161.5 322.986C250.699 322.986 323 250.685 323 161.493C323 72.3012 250.699 0 161.5 0ZM161.5 48.2883C191.011 48.2883 214.924 72.2089 214.924 101.705C214.924 131.209 191.011 155.123 161.5 155.123C132.004 155.123 108.09 131.209 108.09 101.705C108.09 72.2089 132.004 48.2883 161.5 48.2883ZM161.465 280.763C132.032 280.763 105.075 270.044 84.2828 252.302C79.2177 247.982 76.295 241.647 76.295 235C76.295 205.085 100.507 181.143 130.429 181.143H192.586C222.515 181.143 246.634 205.085 246.634 235C246.634 241.654 243.726 247.975 238.653 252.295C217.868 270.044 190.904 280.763 161.465 280.763Z" fill="#FF9F68"/>
</svg>
