<svg width="37" height="34" viewBox="0 0 37 34" fill="none" xmlns="http://www.w3.org/2000/svg">
<ellipse cx="18.0144" cy="17" rx="18.0149" ry="17" transform="rotate(180 18.0144 17)" fill="black" fill-opacity="0.6"/>
<g clip-path="url(#clip0_88_1018)">
<path d="M15.6566 9.26866C15.4239 9.26866 15.1903 9.35727 15.0121 9.53594C14.6561 9.89191 14.6561 10.468 15.0121 10.8239L21.3229 17.1343L15.0121 23.4451C14.6561 23.801 14.6561 24.3776 15.0121 24.7331C15.3681 25.089 15.9446 25.089 16.3005 24.7331L23.2548 17.7788C23.6108 17.4228 23.6108 16.8462 23.2548 16.4908L16.3005 9.53602C16.1229 9.35778 15.8897 9.26866 15.6566 9.26866Z" fill="white"/>
</g>
<defs>
<clipPath id="clip0_88_1018">
<rect width="15.7313" height="15.7313" fill="white" transform="matrix(1 0 0 -1 11.2676 25)"/>
</clipPath>
</defs>
</svg>
