<svg width="16" height="17" viewBox="0 0 16 17" fill="none" xmlns="http://www.w3.org/2000/svg">
<path d="M5.81741e-05 6.72405C5.81741e-05 6.91872 0.0886698 7.11416 0.267336 7.2633C0.62331 7.56116 1.19937 7.56116 1.55534 7.2633L7.86569 1.98286L14.1765 7.2633C14.5324 7.56116 15.109 7.56116 15.4645 7.2633C15.8204 6.96545 15.8204 6.48301 15.4645 6.18523L8.51016 0.366318C8.15418 0.0684624 7.57762 0.0684624 7.22215 0.366318L0.267422 6.18523C0.08918 6.33387 5.81741e-05 6.52896 5.81741e-05 6.72405Z" fill="white"/>
<path d="M6.73145 15.4166C6.73145 15.9689 7.17916 16.4166 7.73145 16.4166C8.28373 16.4166 8.73145 15.9689 8.73145 15.4166H6.73145ZM8.73145 15.4166L8.73145 2.02887H6.73145L6.73145 15.4166H8.73145Z" fill="white"/>
</svg>
