<svg width="45" height="45" viewBox="0 0 45 45" fill="none" xmlns="http://www.w3.org/2000/svg">
<path d="M22.5 0C10.0749 0 0 10.0729 0 22.499C0 34.9251 10.0739 44.998 22.5 44.998C34.9271 44.998 45 34.9251 45 22.499C45 10.0729 34.9271 0 22.5 0ZM22.5 6.72747C26.6114 6.72747 29.943 10.0601 29.943 14.1695C29.943 18.2799 26.6114 21.6115 22.5 21.6115C18.3906 21.6115 15.059 18.2799 15.059 14.1695C15.059 10.0601 18.3906 6.72747 22.5 6.72747ZM22.4951 39.1156C18.3945 39.1156 14.6389 37.6222 11.7422 35.1504C11.0365 34.5486 10.6293 33.666 10.6293 32.7399C10.6293 28.5722 14.0025 25.2366 18.1712 25.2366H26.8308C31.0005 25.2366 34.3608 28.5722 34.3608 32.7399C34.3608 33.667 33.9556 34.5476 33.2489 35.1495C30.3532 37.6222 26.5966 39.1156 22.4951 39.1156Z" fill="white"/>
</svg>
