<svg width="20" height="22" viewBox="0 0 20 22" fill="none" xmlns="http://www.w3.org/2000/svg">
<path d="M10 21.1382C15.5228 21.1382 20 16.4063 20 10.5691C20 4.73195 15.5228 0 10 0C4.47715 0 0 4.73195 0 10.5691C0 16.4063 4.47715 21.1382 10 21.1382Z" fill="#FF9F68"/>
<path d="M9.33301 1.40921H10.6663V12.6829H9.33301V1.40921Z" fill="white"/>
<path d="M8 9.8645H16V11.2737H8V9.8645Z" fill="white"/>
<path d="M9.99996 11.9783C10.7363 11.9783 11.3333 11.3474 11.3333 10.5691C11.3333 9.79078 10.7363 9.15985 9.99996 9.15985C9.26358 9.15985 8.66663 9.79078 8.66663 10.5691C8.66663 11.3474 9.26358 11.9783 9.99996 11.9783Z" fill="white"/>
<path d="M10 11.626C10.5523 11.626 11 11.1528 11 10.5691C11 9.98539 10.5523 9.51219 10 9.51219C9.44771 9.51219 9 9.98539 9 10.5691C9 11.1528 9.44771 11.626 10 11.626Z" fill="#FF9F68"/>
</svg>
