<svg width="20" height="16" viewBox="0 0 20 16" fill="none" xmlns="http://www.w3.org/2000/svg">
<path d="M11.3887 5.81741e-05C11.1561 5.81741e-05 10.9225 0.0886698 10.7443 0.267336C10.3883 0.62331 10.3883 1.19937 10.7443 1.55534L17.055 7.86569L10.7443 14.1765C10.3883 14.5324 10.3883 15.109 10.7443 15.4645C11.1002 15.8204 11.6768 15.8204 12.0327 15.4645L18.987 8.51016C19.343 8.15418 19.343 7.57762 18.987 7.22215L12.0327 0.267422C11.8551 0.08918 11.6219 5.81741e-05 11.3887 5.81741e-05Z" fill="white"/>
<path d="M1 7C0.447715 7 0 7.44772 0 8C0 8.55228 0.447715 9 1 9L1 7ZM1 9L17 9V7L1 7L1 9Z" fill="white"/>
</svg>
