<svg width="20" height="21" viewBox="0 0 20 21" fill="none" xmlns="http://www.w3.org/2000/svg">
<path d="M14.486 18.921C14.4007 18.7214 9.76633 15.9093 9.761 15.9055C9.10733 15.4152 9.02767 14.9382 9.555 14.6642C10.0073 14.4299 10.3963 13.6748 10.6897 12.8666C10.7433 12.8907 10.7993 12.8958 10.8567 12.8792C12.0877 12.512 12.1097 9.97797 11.2863 10.4254C12.056 3.57611 2.759 3.57271 3.52867 10.4257C2.70433 9.97729 2.727 12.512 3.95767 12.8792C4.01467 12.8958 4.07133 12.8907 4.125 12.8669C4.418 13.6748 4.80633 14.4299 5.25867 14.6642C5.79033 14.9403 5.68533 15.3938 5.03967 15.9161C4.82433 16.0905 1.824 17.7966 0.977 18.3739C0.975333 18.3743 0.972333 18.3763 0.972333 18.3763H0.973333C0.623667 18.6153 0.375 18.8139 0.328667 18.9213C0.0873334 19.4888 0 20.4 0 20.4H14.8147C14.8147 20.4 14.728 19.4888 14.486 18.921Z" fill="#FF9F68"/>
<path d="M10.8479 6.07477C11.4529 6.76701 12.1189 7.95905 12.0706 9.82463C12.3053 10.0038 12.5013 10.3105 12.5679 10.7858C12.6906 11.6637 12.3403 13.1019 11.2213 13.5497C10.9183 14.279 10.5873 14.7937 10.2196 15.1103H19.9999C19.9999 15.1103 19.9126 14.1991 19.6713 13.6313C19.5859 13.432 14.9516 10.6199 14.9466 10.6158C14.2923 10.1259 14.2129 9.64885 14.7403 9.37481C15.1926 9.14021 15.5813 8.38541 15.8749 7.57723C15.9283 7.60103 15.9849 7.60647 16.0419 7.58913C17.2726 7.22261 17.2949 4.68859 16.4716 5.13603C17.2253 -1.56877 8.33861 -1.70919 8.68427 4.71579C9.51894 4.95379 10.2733 5.41789 10.8479 6.07477Z" fill="#FF9F68"/>
</svg>
